REM DIRINDEX 1\2,1\3,1\4,1\5,1\6
REM DIRNAME folder01,folder02,folder03,folder04,folder05,folder06
TITLE ""
FILE "Disc6Track15.mp3" MP3
  TRACK 01 AUDIO
    TITLE "3:cjc030_10863"
    INDEX 01 00:00:00
  TRACK 02 AUDIO
    TITLE "0:"
    INDEX 01 00:01:03
  TRACK 03 AUDIO
    TITLE "4:cjc030_10864"
    INDEX 01 00:01:15
  TRACK 04 AUDIO
    TITLE "0:"
    INDEX 01 00:05:50
  TRACK 05 AUDIO
    TITLE "5:cjc030_10865"
    INDEX 01 00:05:59
  TRACK 06 AUDIO
    TITLE "0:"
    INDEX 01 00:06:71
  TRACK 07 AUDIO
    TITLE "6:cjc030_10866"
    INDEX 01 00:07:05
  TRACK 08 AUDIO
    TITLE "0:"
    INDEX 01 00:11:62
  TRACK 09 AUDIO
    TITLE "3:cjc030_10867"
    INDEX 01 00:12:32
  TRACK 10 AUDIO
    TITLE "0:"
    INDEX 01 00:13:51
  TRACK 11 AUDIO
    TITLE "4:cjc030_10868"
    INDEX 01 00:13:61
  TRACK 12 AUDIO
    TITLE "0:"
    INDEX 01 00:16:44
  TRACK 13 AUDIO
    TITLE "5:cjc030_10869"
    INDEX 01 00:16:53
  TRACK 14 AUDIO
    TITLE "0:"
    INDEX 01 00:17:72
  TRACK 15 AUDIO
    TITLE "3:cjc030_10870"
    INDEX 01 00:18:48
  TRACK 16 AUDIO
    TITLE "0:"
    INDEX 01 00:19:60
  TRACK 17 AUDIO
    TITLE "4:cjc030_10871"
    INDEX 01 00:19:71
  TRACK 18 AUDIO
    TITLE "0:"
    INDEX 01 00:24:37
  TRACK 19 AUDIO
    TITLE "5:cjc030_10872"
    INDEX 01 00:24:47
  TRACK 20 AUDIO
    TITLE "0:"
    INDEX 01 00:25:58
  TRACK 21 AUDIO
    TITLE "6:cjc030_10873"
    INDEX 01 00:25:70
  TRACK 22 AUDIO
    TITLE "0:"
    INDEX 01 00:29:19
  TRACK 23 AUDIO
    TITLE "3:cjc030_10874"
    INDEX 01 00:29:66
  TRACK 24 AUDIO
    TITLE "0:"
    INDEX 01 00:31:22
  TRACK 25 AUDIO
    TITLE "4:cjc030_10875"
    INDEX 01 00:31:33
  TRACK 26 AUDIO
    TITLE "0:"
    INDEX 01 00:32:27
  TRACK 27 AUDIO
    TITLE "5:cjc030_10876"
    INDEX 01 00:32:35
  TRACK 28 AUDIO
    TITLE "0:"
    INDEX 01 00:33:66
  TRACK 29 AUDIO
    TITLE "3:cjc030_10877"
    INDEX 01 00:34:43
  TRACK 30 AUDIO
    TITLE "0:"
    INDEX 01 00:35:55
  TRACK 31 AUDIO
    TITLE "4:cjc030_10878"
    INDEX 01 00:35:64
  TRACK 32 AUDIO
    TITLE "0:"
    INDEX 01 00:36:74
  TRACK 33 AUDIO
    TITLE "5:cjc030_10879"
    INDEX 01 00:37:08
  TRACK 34 AUDIO
    TITLE "0:"
    INDEX 01 00:38:20
  TRACK 35 AUDIO
    TITLE "6:cjc030_10880"
    INDEX 01 00:38:31
  TRACK 36 AUDIO
    TITLE "0:"
    INDEX 01 00:40:42
  TRACK 37 AUDIO
    TITLE "3:cjc030_10881"
    INDEX 01 00:41:14
  TRACK 38 AUDIO
    TITLE "0:"
    INDEX 01 00:42:23
  TRACK 39 AUDIO
    TITLE "4:cjc030_10882"
    INDEX 01 00:42:35
  TRACK 40 AUDIO
    TITLE "0:"
    INDEX 01 00:43:40
  TRACK 41 AUDIO
    TITLE "5:cjc030_10883"
    INDEX 01 00:43:48
  TRACK 42 AUDIO
    TITLE "0:"
    INDEX 01 00:44:60
  TRACK 43 AUDIO
    TITLE "6:cjc030_10884"
    INDEX 01 00:44:69
  TRACK 44 AUDIO
    TITLE "0:"
    INDEX 01 00:50:01
  TRACK 45 AUDIO
    TITLE "3:cjc030_10885"
    INDEX 01 00:50:46
  TRACK 46 AUDIO
    TITLE "0:"
    INDEX 01 00:51:40
  TRACK 47 AUDIO
    TITLE "4:cjc030_10886"
    INDEX 01 00:51:50
  TRACK 48 AUDIO
    TITLE "0:"
    INDEX 01 00:55:08
  TRACK 49 AUDIO
    TITLE "5:cjc030_10887"
    INDEX 01 00:55:18
  TRACK 50 AUDIO
    TITLE "0:"
    INDEX 01 00:56:14
  TRACK 51 AUDIO
    TITLE "6:cjc030_10888"
    INDEX 01 00:56:24
  TRACK 52 AUDIO
    TITLE "0:"
    INDEX 01 00:59:14
  TRACK 53 AUDIO
    TITLE "3:cjc030_10889"
    INDEX 01 00:59:63
  TRACK 54 AUDIO
    TITLE "0:"
    INDEX 01 01:00:74
  TRACK 55 AUDIO
    TITLE "4:cjc030_10890"
    INDEX 01 01:01:11
  TRACK 56 AUDIO
    TITLE "0:"
    INDEX 01 01:02:67
  TRACK 57 AUDIO
    TITLE "5:cjc030_10891"
    INDEX 01 01:03:02
  TRACK 58 AUDIO
    TITLE "0:"
    INDEX 01 01:04:15
  TRACK 59 AUDIO
    TITLE "6:cjc030_10892"
    INDEX 01 01:04:27
  TRACK 60 AUDIO
    TITLE "0:"
    INDEX 01 01:07:64
  TRACK 61 AUDIO
    TITLE "3:cjc030_10893"
    INDEX 01 01:08:35
  TRACK 62 AUDIO
    TITLE "0:"
    INDEX 01 01:09:54
  TRACK 63 AUDIO
    TITLE "4:cjc030_10894"
    INDEX 01 01:09:63
  TRACK 64 AUDIO
    TITLE "0:"
    INDEX 01 01:13:32
  TRACK 65 AUDIO
    TITLE "5:cjc030_10895"
    INDEX 01 01:13:38
  TRACK 66 AUDIO
    TITLE "0:"
    INDEX 01 01:14:59
  TRACK 67 AUDIO
    TITLE "6:cjc030_10896"
    INDEX 01 01:14:70
  TRACK 68 AUDIO
    TITLE "0:"
    INDEX 01 01:16:54
  TRACK 69 AUDIO
    TITLE "3:cjc030_10897"
    INDEX 01 01:17:30
  TRACK 70 AUDIO
    TITLE "0:"
    INDEX 01 01:18:53
  TRACK 71 AUDIO
    TITLE "4:cjc030_10898"
    INDEX 01 01:18:62
  TRACK 72 AUDIO
    TITLE "0:"
    INDEX 01 01:21:31
  TRACK 73 AUDIO
    TITLE "5:cjc030_10899"
    INDEX 01 01:21:41
  TRACK 74 AUDIO
    TITLE "0:"
    INDEX 01 01:22:66
  TRACK 75 AUDIO
    TITLE "6:cjc030_10900"
    INDEX 01 01:23:01
  TRACK 76 AUDIO
    TITLE "0:"
    INDEX 01 01:28:51
  TRACK 77 AUDIO
    TITLE "3:cjc030_10901"
    INDEX 01 01:29:23
  TRACK 78 AUDIO
    TITLE "0:"
    INDEX 01 01:30:32
  TRACK 79 AUDIO
    TITLE "4:cjc030_10902"
    INDEX 01 01:30:42
  TRACK 80 AUDIO
    TITLE "0:"
    INDEX 01 01:31:47
  TRACK 81 AUDIO
    TITLE "5:cjc030_10903"
    INDEX 01 01:31:57
  TRACK 82 AUDIO
    TITLE "0:"
    INDEX 01 01:32:66
  TRACK 83 AUDIO
    TITLE "3:cjc030_10904"
    INDEX 01 01:33:44
  TRACK 84 AUDIO
    TITLE "0:"
    INDEX 01 01:34:59
  TRACK 85 AUDIO
    TITLE "4:cjc030_10905"
    INDEX 01 01:34:71
  TRACK 86 AUDIO
    TITLE "0:"
    INDEX 01 01:35:61
  TRACK 87 AUDIO
    TITLE "5:cjc030_10906"
    INDEX 01 01:35:69
  TRACK 88 AUDIO
    TITLE "0:"
    INDEX 01 01:37:11
  TRACK 89 AUDIO
    TITLE "6:cjc030_10907"
    INDEX 01 01:37:21
  TRACK 90 AUDIO
    TITLE "0:"
    INDEX 01 01:38:71
  TRACK 91 AUDIO
    TITLE "3:cjc030_10908"
    INDEX 01 01:39:43
  TRACK 92 AUDIO
    TITLE "0:"
    INDEX 01 01:40:60
  TRACK 93 AUDIO
    TITLE "4:cjc030_10909"
    INDEX 01 01:40:70
  TRACK 94 AUDIO
    TITLE "0:"
    INDEX 01 01:43:05
  TRACK 95 AUDIO
    TITLE "5:cjc030_10910"
    INDEX 01 01:43:15
  TRACK 96 AUDIO
    TITLE "0:"
    INDEX 01 01:44:32
  TRACK 97 AUDIO
    TITLE "3:cjc030_10911"
    INDEX 01 01:45:06
  TRACK 98 AUDIO
    TITLE "0:"
    INDEX 01 01:46:18
  TRACK 99 AUDIO
    TITLE "4:cjc030_10912"
    INDEX 01 01:46:27
  TRACK 100 AUDIO
    TITLE "0:"
    INDEX 01 01:47:19
  TRACK 101 AUDIO
    TITLE "5:cjc030_10913"
    INDEX 01 01:47:27
  TRACK 102 AUDIO
    TITLE "0:"
    INDEX 01 01:48:42
